# xmcd
#
# Track frame offsets:
#  150
#  14802
#  37127
#  54137
#  74520
#  87527
#  101977
#  122352
#  135620
#  153057
#  171934
#  187527
#  211232
#
# Disc length: 3339 seconds
#
# Revision: 5
# Processed by: cddbd v1.5.1PL2 Copyright (c) Steve Scherf et al.
# Submitted via: Collectorz.com_Music_Collector 6.9
#
DISCID=ae0d090d
DTITLE=Billy Boy Arnold - Eldorado Cadillac
DYEAR=1995
DGENRE=Blues
TTITLE0=I Ain't Got You
TTITLE1=Sunday Morning Blues
TTITLE2=Don't Stay Out All Night
TTITLE3=Lowdown Thing Or Two
TTITLE4=Been Gone Too Long
TTITLE5=Mama's Bitter Seed
TTITLE6=Man Of Considerable Taste
TTITLE7=How Long Can This Go On?
TTITLE8=Too Many Old Flames
TTITLE9=Slick Chick
TTITLE10=It Should Have Been Me
TTITLE11=Sunny Road
TTITLE12=Loving Mother For You
EXTD=
EXTT0=
EXTT1=
EXTT2=
EXTT3=
EXTT4=
EXTT5=
EXTT6=
EXTT7=
EXTT8=
EXTT9=
EXTT10=
EXTT11=
EXTT12=
PLAYORDER=
